<svg width="42" height="42" viewBox="0 0 42 42" fill="none" xmlns="http://www.w3.org/2000/svg">
<path d="M22.5174 41.976C21.768 41.9697 21.0514 41.6619 20.5236 41.1197C19.9959 40.5776 19.6997 39.8447 19.6997 39.081C19.6997 38.3175 19.9959 37.5847 20.5236 37.0425C21.0514 36.5003 21.768 36.1926 22.5174 36.1862C23.6989 36.1862 24.8689 35.949 25.9603 35.4885C27.052 35.0277 28.0436 34.3524 28.8791 33.5013C29.7146 32.65 30.3772 31.6393 30.8294 30.5272C31.2816 29.4149 31.5141 28.2227 31.5141 27.0189C31.5141 25.815 31.2816 24.6231 30.8294 23.5108C30.3772 22.3987 29.7146 21.388 28.8791 20.5367C28.0436 19.6855 27.052 19.0102 25.9603 18.5495C24.8689 18.0889 23.6989 17.8517 22.5174 17.8517C21.7639 17.8517 21.0413 17.5467 20.5085 17.0038C19.9757 16.4609 19.6763 15.7246 19.6763 14.9568C19.6763 14.1891 19.9757 13.4527 20.5085 12.9098C21.0413 12.3669 21.7639 12.0619 22.5174 12.0619C24.4496 12.0548 26.3641 12.4364 28.1512 13.1848C29.9385 13.9333 31.563 15.0338 32.9315 16.4234C34.3003 17.813 35.3865 19.4643 36.1275 21.2826C36.8684 23.1008 37.25 25.0501 37.25 27.0189C37.25 28.9877 36.8684 30.9372 36.1275 32.7554C35.3865 34.5735 34.3003 36.2249 32.9315 37.6144C31.563 39.0041 29.9385 40.1047 28.1512 40.8532C26.3641 41.6017 24.4496 41.9832 22.5174 41.976Z" fill="#0066AA"/>
<path d="M32.6925 13.6655C34.1175 12.2727 35.2513 10.6004 36.0254 8.74946C36.7996 6.89848 37.1981 4.90703 37.1971 2.895C37.1971 2.12723 36.8978 1.39089 36.3649 0.847994C35.8323 0.305096 35.1096 9.67749e-05 34.3561 9.67749e-05C33.6025 9.67749e-05 32.8798 0.305096 32.3471 0.847994C31.8143 1.39089 31.515 2.12723 31.515 2.895C31.5142 4.4522 31.1242 5.98357 30.3817 7.34467C29.6394 8.70577 28.569 9.85176 27.2714 10.6746C29.266 11.2689 31.1139 12.2884 32.6925 13.6655Z" fill="black"/>
<path d="M18.6789 29.9139C14.7858 29.9139 11.0522 28.3381 8.29935 25.533C5.54652 22.7282 4 18.9238 4 14.9569C4 10.9901 5.54652 7.18576 8.29935 4.38079C11.0522 1.57581 14.7858 0 18.6789 0C19.4324 0 20.155 0.304999 20.6878 0.847897C21.2207 1.3908 21.52 2.12713 21.52 2.8949C21.52 3.66267 21.2207 4.399 20.6878 4.94191C20.155 5.48481 19.4324 5.7898 18.6789 5.7898C17.4974 5.7898 16.3275 6.02691 15.236 6.4876C14.1445 6.9483 13.1527 7.62355 12.3172 8.47479C11.4818 9.32605 10.8191 10.3366 10.367 11.4488C9.91487 12.561 9.68218 13.7531 9.68218 14.9569C9.68218 16.1608 9.91487 17.3528 10.367 18.465C10.8191 19.5772 11.4818 20.5878 12.3172 21.4391C13.1527 22.2903 14.1445 22.9656 15.236 23.4263C16.3275 23.8869 17.4974 24.1241 18.6789 24.1241C19.4324 24.1241 20.155 24.4291 20.6878 24.972C21.2207 25.5148 21.52 26.2512 21.52 27.0189C21.52 27.7868 21.2207 28.5232 20.6878 29.0659C20.155 29.6089 19.4324 29.9139 18.6789 29.9139Z" fill="#0066AA"/>
<path d="M8.50488 28.3103C7.07979 29.7032 5.94604 31.3754 5.17187 33.2264C4.39769 35.0775 3.9991 37.0688 4.0001 39.081C3.99699 39.4633 4.06819 39.8422 4.20958 40.1963C4.35096 40.5502 4.55975 40.8722 4.82387 41.1435C5.088 41.415 5.40225 41.6304 5.74849 41.7773C6.09472 41.9243 6.4661 42 6.84118 42C7.21628 42 7.58766 41.9243 7.9339 41.7773C8.28013 41.6304 8.59438 41.415 8.8585 41.1435C9.12263 40.8722 9.3314 40.5502 9.47279 40.1963C9.61418 39.8422 9.68538 39.4633 9.68227 39.081C9.68303 37.5238 10.073 35.9924 10.8155 34.6312C11.558 33.27 12.6285 32.124 13.9261 31.3012C11.9314 30.7069 10.0835 29.6874 8.50488 28.3103Z" fill="black"/>
</svg>
