<svg width="221" height="42" viewBox="0 0 221 42" fill="none" xmlns="http://www.w3.org/2000/svg">
<path d="M18.5174 41.976C17.768 41.9697 17.0514 41.6619 16.5236 41.1197C15.9959 40.5776 15.6997 39.8447 15.6997 39.081C15.6997 38.3175 15.9959 37.5847 16.5236 37.0425C17.0514 36.5003 17.768 36.1926 18.5174 36.1862C19.6989 36.1862 20.8689 35.949 21.9603 35.4885C23.052 35.0277 24.0436 34.3524 24.8791 33.5013C25.7146 32.65 26.3772 31.6393 26.8294 30.5272C27.2816 29.4149 27.5141 28.2227 27.5141 27.0189C27.5141 25.815 27.2816 24.6231 26.8294 23.5108C26.3772 22.3987 25.7146 21.388 24.8791 20.5367C24.0436 19.6855 23.052 19.0102 21.9603 18.5495C20.8689 18.0889 19.6989 17.8517 18.5174 17.8517C17.7639 17.8517 17.0413 17.5467 16.5085 17.0038C15.9757 16.4609 15.6763 15.7246 15.6763 14.9568C15.6763 14.1891 15.9757 13.4527 16.5085 12.9098C17.0413 12.3669 17.7639 12.0619 18.5174 12.0619C20.4496 12.0548 22.3641 12.4364 24.1512 13.1848C25.9385 13.9333 27.563 15.0338 28.9315 16.4234C30.3003 17.813 31.3865 19.4643 32.1275 21.2826C32.8684 23.1008 33.25 25.0501 33.25 27.0189C33.25 28.9877 32.8684 30.9372 32.1275 32.7554C31.3865 34.5735 30.3003 36.2249 28.9315 37.6144C27.563 39.0041 25.9385 40.1047 24.1512 40.8532C22.3641 41.6017 20.4496 41.9832 18.5174 41.976Z" fill="#0066AA"/>
<path d="M28.6925 13.6655C30.1175 12.2727 31.2513 10.6004 32.0254 8.74946C32.7996 6.89848 33.1981 4.90703 33.1971 2.895C33.1971 2.12723 32.8978 1.39089 32.3649 0.847994C31.8323 0.305096 31.1096 9.67749e-05 30.3561 9.67749e-05C29.6025 9.67749e-05 28.8798 0.305096 28.3471 0.847994C27.8143 1.39089 27.515 2.12723 27.515 2.895C27.5142 4.4522 27.1242 5.98357 26.3817 7.34467C25.6394 8.70577 24.569 9.85176 23.2714 10.6746C25.266 11.2689 27.1139 12.2884 28.6925 13.6655Z" fill="black"/>
<path d="M14.6789 29.9139C10.7858 29.9139 7.05216 28.3381 4.29935 25.533C1.54652 22.7282 0 18.9238 0 14.9569C0 10.9901 1.54652 7.18576 4.29935 4.38079C7.05216 1.57581 10.7858 0 14.6789 0C15.4324 0 16.155 0.304999 16.6878 0.847897C17.2207 1.3908 17.52 2.12713 17.52 2.8949C17.52 3.66267 17.2207 4.399 16.6878 4.94191C16.155 5.48481 15.4324 5.7898 14.6789 5.7898C13.4974 5.7898 12.3275 6.02691 11.236 6.4876C10.1445 6.9483 9.15268 7.62355 8.31725 8.47479C7.48183 9.32605 6.81914 10.3366 6.36701 11.4488C5.91487 12.561 5.68218 13.7531 5.68218 14.9569C5.68218 16.1608 5.91487 17.3528 6.36701 18.465C6.81914 19.5772 7.48183 20.5878 8.31725 21.4391C9.15268 22.2903 10.1445 22.9656 11.236 23.4263C12.3275 23.8869 13.4974 24.1241 14.6789 24.1241C15.4324 24.1241 16.155 24.4291 16.6878 24.972C17.2207 25.5148 17.52 26.2512 17.52 27.0189C17.52 27.7868 17.2207 28.5232 16.6878 29.0659C16.155 29.6089 15.4324 29.9139 14.6789 29.9139Z" fill="#0066AA"/>
<path d="M4.50488 28.3103C3.07979 29.7032 1.94604 31.3754 1.17187 33.2264C0.397691 35.0775 -0.00089812 37.0688 9.72476e-05 39.081C-0.00300601 39.4633 0.0681902 39.8422 0.209577 40.1963C0.350963 40.5502 0.559745 40.8722 0.823873 41.1435C1.088 41.415 1.40225 41.6304 1.74849 41.7773C2.09472 41.9243 2.4661 42 2.84118 42C3.21628 42 3.58766 41.9243 3.9339 41.7773C4.28013 41.6304 4.59438 41.415 4.8585 41.1435C5.12263 40.8722 5.3314 40.5502 5.47279 40.1963C5.61418 39.8422 5.68538 39.4633 5.68227 39.081C5.68303 37.5238 6.07304 35.9924 6.81553 34.6312C7.558 33.27 8.62851 32.124 9.92605 31.3012C7.93141 30.7069 6.08352 29.6874 4.50488 28.3103Z" fill="black"/>
<path d="M50.552 32V13.12H43.128V9.6H62.136V13.12H54.712V32H50.552ZM71.156 32.224C69.2573 32.224 67.5933 31.8507 66.164 31.104C64.756 30.336 63.6573 29.2907 62.868 27.968C62.1 26.6453 61.716 25.1413 61.716 23.456C61.716 21.7493 62.0893 20.2453 62.836 18.944C63.604 17.6213 64.6493 16.5867 65.972 15.84C67.316 15.0933 68.8413 14.72 70.548 14.72C72.212 14.72 73.6947 15.0827 74.996 15.808C76.2973 16.5333 77.3213 17.5573 78.068 18.88C78.8147 20.2027 79.188 21.76 79.188 23.552C79.188 23.7227 79.1773 23.9147 79.156 24.128C79.156 24.3413 79.1453 24.544 79.124 24.736H64.884V22.08H77.012L75.444 22.912C75.4653 21.9307 75.2627 21.0667 74.836 20.32C74.4093 19.5733 73.8227 18.9867 73.076 18.56C72.3507 18.1333 71.508 17.92 70.548 17.92C69.5667 17.92 68.7027 18.1333 67.956 18.56C67.2307 18.9867 66.6547 19.584 66.228 20.352C65.8227 21.0987 65.62 21.984 65.62 23.008V23.648C65.62 24.672 65.8547 25.5787 66.324 26.368C66.7933 27.1573 67.4547 27.7653 68.308 28.192C69.1613 28.6187 70.1427 28.832 71.252 28.832C72.212 28.832 73.076 28.6827 73.844 28.384C74.612 28.0853 75.2947 27.616 75.892 26.976L78.036 29.44C77.268 30.336 76.2973 31.0293 75.124 31.52C73.972 31.9893 72.6493 32.224 71.156 32.224ZM93.0895 32V28.544L92.8655 27.808V21.76C92.8655 20.5867 92.5135 19.68 91.8095 19.04C91.1055 18.3787 90.0388 18.048 88.6095 18.048C87.6495 18.048 86.7002 18.1973 85.7615 18.496C84.8442 18.7947 84.0655 19.2107 83.4255 19.744L81.8575 16.832C82.7748 16.128 83.8628 15.6053 85.1215 15.264C86.4015 14.9013 87.7242 14.72 89.0895 14.72C91.5642 14.72 93.4735 15.3173 94.8175 16.512C96.1828 17.6853 96.8655 19.5093 96.8655 21.984V32H93.0895ZM87.7135 32.224C86.4335 32.224 85.3135 32.0107 84.3535 31.584C83.3935 31.136 82.6468 30.528 82.1135 29.76C81.6015 28.9707 81.3455 28.0853 81.3455 27.104C81.3455 26.144 81.5695 25.28 82.0175 24.512C82.4868 23.744 83.2442 23.136 84.2895 22.688C85.3348 22.24 86.7215 22.016 88.4495 22.016H93.4095V24.672H88.7375C87.3722 24.672 86.4548 24.896 85.9855 25.344C85.5162 25.7707 85.2815 26.304 85.2815 26.944C85.2815 27.6693 85.5695 28.2453 86.1455 28.672C86.7215 29.0987 87.5215 29.312 88.5455 29.312C89.5268 29.312 90.4015 29.088 91.1695 28.64C91.9588 28.192 92.5242 27.5307 92.8655 26.656L93.5375 29.056C93.1535 30.0587 92.4602 30.8373 91.4575 31.392C90.4762 31.9467 89.2282 32.224 87.7135 32.224ZM123.567 14.72C124.932 14.72 126.138 14.9867 127.183 15.52C128.25 16.0533 129.082 16.8747 129.679 17.984C130.276 19.072 130.575 20.48 130.575 22.208V32H126.575V22.72C126.575 21.2053 126.244 20.0747 125.583 19.328C124.922 18.5813 123.972 18.208 122.735 18.208C121.86 18.208 121.082 18.4 120.399 18.784C119.738 19.168 119.215 19.7333 118.831 20.48C118.468 21.2267 118.287 22.176 118.287 23.328V32H114.287V22.72C114.287 21.2053 113.956 20.0747 113.295 19.328C112.634 18.5813 111.684 18.208 110.447 18.208C109.572 18.208 108.794 18.4 108.111 18.784C107.45 19.168 106.927 19.7333 106.543 20.48C106.18 21.2267 105.999 22.176 105.999 23.328V32H101.999V14.912H105.807V19.456L105.135 18.112C105.711 17.0027 106.543 16.16 107.631 15.584C108.74 15.008 109.999 14.72 111.407 14.72C113.007 14.72 114.394 15.1147 115.567 15.904C116.762 16.6933 117.551 17.888 117.935 19.488L116.367 18.944C116.922 17.664 117.839 16.64 119.119 15.872C120.399 15.104 121.882 14.72 123.567 14.72ZM151.858 32.32C150.109 32.32 148.434 32.0747 146.834 31.584C145.234 31.072 143.965 30.4213 143.026 29.632L144.466 26.4C145.362 27.104 146.472 27.6907 147.794 28.16C149.117 28.6293 150.472 28.864 151.858 28.864C153.032 28.864 153.981 28.736 154.706 28.48C155.432 28.224 155.965 27.8827 156.306 27.456C156.648 27.008 156.818 26.5067 156.818 25.952C156.818 25.2693 156.573 24.7253 156.082 24.32C155.592 23.8933 154.952 23.5627 154.162 23.328C153.394 23.072 152.53 22.8373 151.57 22.624C150.632 22.4107 149.682 22.1653 148.722 21.888C147.784 21.5893 146.92 21.216 146.13 20.768C145.362 20.2987 144.733 19.68 144.242 18.912C143.752 18.144 143.506 17.1627 143.506 15.968C143.506 14.752 143.826 13.6427 144.466 12.64C145.128 11.616 146.12 10.8053 147.442 10.208C148.786 9.58933 150.482 9.28 152.53 9.28C153.874 9.28 155.208 9.45067 156.53 9.792C157.853 10.1333 159.005 10.624 159.986 11.264L158.674 14.496C157.672 13.8987 156.637 13.4613 155.57 13.184C154.504 12.8853 153.48 12.736 152.498 12.736C151.346 12.736 150.408 12.8747 149.682 13.152C148.978 13.4293 148.456 13.792 148.114 14.24C147.794 14.688 147.634 15.2 147.634 15.776C147.634 16.4587 147.869 17.0133 148.338 17.44C148.829 17.8453 149.458 18.1653 150.226 18.4C151.016 18.6347 151.89 18.8693 152.85 19.104C153.81 19.3173 154.76 19.5627 155.698 19.84C156.658 20.1173 157.522 20.48 158.29 20.928C159.08 21.376 159.709 21.984 160.178 22.752C160.669 23.52 160.914 24.4907 160.914 25.664C160.914 26.8587 160.584 27.968 159.922 28.992C159.282 29.9947 158.29 30.8053 156.946 31.424C155.602 32.0213 153.906 32.32 151.858 32.32ZM165.751 38.432C164.919 38.432 164.087 38.2933 163.255 38.016C162.423 37.7387 161.729 37.3547 161.175 36.864L162.775 33.92C163.18 34.2827 163.639 34.5707 164.151 34.784C164.663 34.9973 165.185 35.104 165.719 35.104C166.444 35.104 167.031 34.9227 167.479 34.56C167.927 34.1973 168.343 33.5893 168.727 32.736L169.719 30.496L170.039 30.016L176.503 14.912H180.343L172.343 33.376C171.809 34.656 171.212 35.6693 170.551 36.416C169.911 37.1627 169.185 37.6853 168.375 37.984C167.585 38.2827 166.711 38.432 165.751 38.432ZM169.271 32.608L161.559 14.912H165.719L171.991 29.664L169.271 32.608ZM192.539 14.72C193.904 14.72 195.12 14.9867 196.187 15.52C197.275 16.0533 198.128 16.8747 198.747 17.984C199.365 19.072 199.675 20.48 199.675 22.208V32H195.675V22.72C195.675 21.2053 195.312 20.0747 194.587 19.328C193.883 18.5813 192.891 18.208 191.611 18.208C190.672 18.208 189.84 18.4 189.115 18.784C188.389 19.168 187.824 19.744 187.419 20.512C187.035 21.2587 186.843 22.208 186.843 23.36V32H182.843V14.912H186.651V19.52L185.979 18.112C186.576 17.024 187.44 16.192 188.571 15.616C189.723 15.0187 191.045 14.72 192.539 14.72ZM212.62 32.224C210.828 32.224 209.228 31.8507 207.82 31.104C206.434 30.336 205.346 29.2907 204.556 27.968C203.767 26.6453 203.372 25.1413 203.372 23.456C203.372 21.7493 203.767 20.2453 204.556 18.944C205.346 17.6213 206.434 16.5867 207.82 15.84C209.228 15.0933 210.828 14.72 212.62 14.72C214.284 14.72 215.746 15.0613 217.004 15.744C218.284 16.4053 219.255 17.3867 219.916 18.688L216.844 20.48C216.332 19.6693 215.703 19.072 214.956 18.688C214.231 18.304 213.442 18.112 212.588 18.112C211.607 18.112 210.722 18.3253 209.932 18.752C209.143 19.1787 208.524 19.7973 208.076 20.608C207.628 21.3973 207.404 22.3467 207.404 23.456C207.404 24.5653 207.628 25.5253 208.076 26.336C208.524 27.1253 209.143 27.7333 209.932 28.16C210.722 28.5867 211.607 28.8 212.588 28.8C213.442 28.8 214.231 28.608 214.956 28.224C215.703 27.84 216.332 27.2427 216.844 26.432L219.916 28.224C219.255 29.504 218.284 30.496 217.004 31.2C215.746 31.8827 214.284 32.224 212.62 32.224Z" fill="black"/>
</svg>
